<?xml version="1.0" encoding="UTF-8"?>
<!DOCTYPE svg PUBLIC "-//W3C//DTD SVG 1.1//EN" "http://www.w3.org/Graphics/SVG/1.1/DTD/svg11.dtd">
<!-- Creator: CorelDRAW -->
<svg xmlns="http://www.w3.org/2000/svg" xml:space="preserve" width="0.657236in" height="0.681988in" version="1.1" style="shape-rendering:geometricPrecision; text-rendering:geometricPrecision; image-rendering:optimizeQuality; fill-rule:evenodd; clip-rule:evenodd"
viewBox="0 0 160.2 166.24"
 xmlns:xlink="http://www.w3.org/1999/xlink"
 xmlns:xodm="http://www.corel.com/coreldraw/odm/2003">
 <defs>
  <style type="text/css">
   <![CDATA[
    .fil0 {fill:#B18CF9}
   ]]>
  </style>
 </defs>
 <g id="Layer_x0020_1">
  <metadata id="CorelCorpID_0Corel-Layer"/>
  <g id="_1996144437520">
   <path class="fil0" d="M105.88 97.21l1.95 -1.74c5.41,1.41 3.03,4.13 9.55,0.84 1.47,-0.74 2.3,-0.98 3.92,-1.44 1.79,-0.51 2.2,-0.69 2.81,-2.55 0.42,-1.28 1.09,-2.9 1.2,-4.16l3.02 0c0.33,1.42 0.67,2.76 1.2,4.16 1.1,2.96 3.36,2.25 6.85,3.87 1.15,0.54 2.19,1.68 3.68,1.68 1.58,0 3.89,-1.92 5.7,-2.35l1.95 1.74c-4.55,9.28 -2.34,3.51 0.57,13.49 0.52,1.79 0.89,2.16 2.61,2.75 1.47,0.5 3.03,0.87 4.25,1.45l0 2.68c-1.34,0.31 -2.63,0.76 -4.15,1.21 -3.25,0.95 -2.03,2.31 -4.11,6.61 -2.23,4.61 -2.74,3.07 0.89,9.94l-1.95 1.74c-7.66,-4.27 -5.64,-2.36 -10.25,-0.54 -1.46,0.58 -4.57,1.17 -5.3,2.07 -0.5,0.61 -1.85,4.73 -1.93,5.77l-3.02 0c-0.08,-1.02 -1.3,-4.9 -1.79,-5.58 -0.78,-1.08 -3.8,-1.67 -5.4,-2.31 -4.99,-2 -2.62,-3.51 -10.24,0.52l-1.95 -1.74c3.2,-6.53 3.31,-4.95 1.05,-9.42 -3.01,-5.98 0.19,-6.25 -8.48,-8.27l0 -2.68c3.29,-1.58 5.88,-0.62 6.83,-3.89 2.9,-9.95 5.22,-5.03 0.54,-13.87zm-58.64 -82.09l33.17 0c0.18,2.14 4.84,12.52 5.03,14.74l-43.56 0c0.64,-2.76 4.72,-11.99 5.36,-14.74zm43.56 13.74c5.24,0 17.05,-0.61 21.11,0.33 0.81,3.48 0.33,25.42 0.33,30.83 0,10.5 0,21 0,31.5 -1.78,-0.41 -4.22,-2.85 -7.43,-0.4 -8.27,6.31 -1.95,9.56 -1.95,11.79 0,0.67 -1.19,2.59 -1.54,3.49 -0.81,2.1 -0.12,2.18 -2.17,2.86 -6.18,2.05 -5.68,2.22 -5.68,9.4 0,3.37 4.26,4.05 5.84,4.55 2.15,0.68 0.94,0.9 2.65,4.39 2.15,4.38 -1.46,3.8 -1.46,7.82 0,2.64 4.4,7.04 7.04,7.04 1.79,0 3.46,-1.03 4.69,-1.68l0 9.38c-0.73,0.49 -1.12,1.01 -2.35,1.01l-91.81 0c-1.21,0 -1.87,-0.28 -2.68,-0.67 -0.18,-0.75 -0.34,-0.77 -0.34,-1.68l0 -117.61c0,-3.28 4.26,-2.35 9.38,-2.35 4.02,0 8.04,0 12.06,0 -0.11,1.33 -0.33,0.81 -0.33,1.68 0,2.25 1.81,4.35 4.02,4.35l47.24 0c2.53,0 4.69,-3.23 3.35,-6.03zm-52.27 -5.36c-5.81,0 -11.62,0 -17.42,-0 -3.24,-0 -5.43,-0.17 -7.58,1.13 -1.77,1.07 -3.48,2.92 -3.48,5.57l0 119.62c0,3.21 3.23,6.37 6.37,6.37l94.49 0c2.89,0 5.26,-2.16 6.08,-4.31 0.92,-2.41 0.62,-6.37 0.62,-9.77 3.1,0.26 1.2,1.67 4.22,6.17 0.95,1.41 0.47,9.06 0.47,11.93 -0.73,0.49 -1.12,1 -2.35,1l-111.91 0c-2.32,0 -3.02,-0.69 -3.02,-3.01l0 -137.04c0,-3.22 3.78,-2.35 7.04,-2.35l28.14 0c-0.11,1.34 -1.15,3.69 -1.68,4.69zm48.58 -4.69c5.79,0 31.39,-0.47 34.85,0.34 0.18,0.75 0.34,0.77 0.34,1.67l0 62.32c0,0.77 -0.62,1.07 -1.15,1.87 -0.53,0.81 -0.62,1.12 -0.91,2.1 -0.74,2.52 0.03,2.78 -2.63,3.4 0,-15.97 0,-31.94 0,-47.91 0,-3.78 0.18,-8.02 0.01,-11.74 -0.16,-3.35 -2.33,-6.13 -5.17,-6.9 -4.02,-1.09 -18.19,-0.47 -23.66,-0.47l-1.67 -4.69zm-16.75 -8.71l-13.4 0c1.63,-7 12.93,-5.73 13.4,0zm-18.76 -0.33c-7.15,0 -7.28,0.05 -9.38,4.02 -8.04,0 -16.08,0 -24.12,0 -3.88,0 -8.26,-0.19 -12.08,-0.02 -3.06,0.14 -6.02,3.18 -6.02,6.38l0 140.06c0,2.56 2.96,6.03 6.7,6.03l114.26 0c8.42,0 6.7,-11.32 6.7,-16.42 7.32,-0.61 4.62,-6.09 7.25,-7.49 0.74,-0.4 1.77,-0.55 2.7,-0.99 0.81,-0.38 1.77,-1.08 2.45,-1.08 1.63,0 2.65,2.19 6.37,2.19 2.42,0 6.7,-4.57 6.7,-7.04 0,-1.82 -1.51,-3.63 -2.05,-5.03 -0.58,-1.52 0.35,-1.78 1.48,-5.25 0.87,-2.66 1.08,-1.17 4.59,-2.78 3.64,-1.67 3.01,-4.18 3.01,-8.39 0,-3.23 -3.47,-4.02 -5.42,-4.63 -2.22,-0.7 -1.56,-0.52 -2.33,-2.69 -0.28,-0.79 -1.63,-3.11 -1.63,-3.73 0,-2.18 4.88,-5.08 0.59,-9.31 -2.39,-2.35 -3.38,-4.4 -7.08,-3.23 -1.58,0.5 -2.95,1.73 -3.75,1.91 -1.05,0.23 -2.53,-1.04 -3.79,-1.47 -2.42,-0.84 -2.33,-0.03 -3.12,-2.58 -1.03,-3.34 -1.42,-5.42 -5.98,-5.42l0 -61.65c0,-9.71 -10.75,-7.37 -17.42,-7.37 -8.38,0 -16.75,0 -25.13,0 -0.98,-4.22 -4.03,-4.02 -9.05,-4.02 -1.4,-2.91 -0.6,-3.35 -4.1,-6.62 -7.57,-7.09 -19.73,-0.99 -20.36,6.62z"/>
   <path class="fil0" d="M71.37 54.99l24.79 0 0 11.06 -24.79 0 0 -11.06zm-5.36 0c0,3.78 -0.66,12.53 1.08,14.67 0.63,0.77 1.98,1.75 3.28,1.75l10.72 0 0 15.41 -21.44 0c-3.57,0 -2.65,5.03 -0.33,5.03l24.46 0c1.62,0 2.68,-1.06 2.68,-2.68l0 -17.76 10.72 0c2.41,0 4.36,-2.44 4.36,-5.03 0,-11.76 1.8,-16.75 -6.7,-16.75l-22.11 0c-4.01,0 -6.7,1.4 -6.7,5.36z"/>
   <path class="fil0" d="M62.99 122.68l20.1 0 0 11.06 -20.1 0 0 -11.06zm-26.8 -13.74l0 19.1c0,2.06 1.59,3.02 3.69,3.02l18.09 0c0,2.7 -0.77,8.04 4.69,8.04l21.44 0c2.01,0 4.02,-2.01 4.02,-4.02l0 -13.07c0,-2.22 -1.56,-4.36 -3.69,-4.36l-22.78 0c-4.3,0 -3.69,5.94 -3.69,8.04l-16.42 0 0 -16.75c0,-3.9 -5.36,-3.9 -5.36,0z"/>
   <path class="fil0" d="M117.94 116.31c0,-4.33 3.83,-8.71 8.04,-8.71 4.06,0 7.36,1.43 8.92,5.15 3.81,9.08 -7.64,16.41 -14.38,9.69 -1.23,-1.22 -2.58,-3.87 -2.58,-6.13zm-5.03 -1c0,4.54 1.03,8.27 4.27,11.14 9.13,8.08 23.54,2.86 23.54,-11.14 0,-10.7 -14.78,-17.79 -23.38,-9.31 -2.1,2.07 -4.43,5.3 -4.43,9.31z"/>
   <path class="fil0" d="M30.16 89.17l8.46 -8.63 8.89 8.71 -8.88 9.05c-1.42,-2.09 -2.49,-2.99 -4.19,-4.69 -1.35,-1.35 -3.29,-2.97 -4.27,-4.44zm-5.7 0c0,2.2 1.43,3.28 2.6,4.44 2.1,2.09 8.92,9.97 11.48,9.97 2.63,0 3.17,-0.98 4.94,-2.76l7.04 -7.04c5.69,-5.64 1.47,-7.4 -7.04,-15.92 -1.94,-1.94 -1.99,-2.76 -5.28,-2.76 -1.78,0 -2.92,1.75 -3.94,2.76l-7.04 7.04c-1.02,1.01 -2.76,2.44 -2.76,4.27z"/>
   <path class="fil0" d="M48.25 51.31c0,1.68 1.63,2.29 2.35,3.35 -4.02,0 -8.04,0 -12.06,0 -3.6,0 -9.72,-0.88 -9.72,2.68 0,3.83 5.9,2.68 9.38,2.68 4.13,0 8.26,0 12.4,0 -0.67,1 -2.35,2.07 -2.35,3.35 0,1.88 1.16,2.68 2.68,2.68 2.03,0 8.71,-7.23 8.71,-8.38 0,-1.88 -2.63,-3.81 -3.77,-4.94 -0.96,-0.96 -3.56,-4.1 -4.94,-4.1 -1.38,0 -2.68,1.3 -2.68,2.68z"/>
   <path class="fil0" d="M55.62 25.17c3.35,0 16.76,0.49 18.54,-0.56 2.24,-1.32 1.33,-4.8 -1.45,-4.8l-17.76 0c-3.5,0 -4.4,5.36 0.67,5.36z"/>
  </g>
 </g>
</svg>
