<?xml version="1.0" encoding="UTF-8"?>
<!DOCTYPE svg PUBLIC "-//W3C//DTD SVG 1.1//EN" "http://www.w3.org/Graphics/SVG/1.1/DTD/svg11.dtd">
<!-- Creator: CorelDRAW -->
<svg xmlns="http://www.w3.org/2000/svg" xml:space="preserve" width="0.65576in" height="0.656787in" version="1.1" style="shape-rendering:geometricPrecision; text-rendering:geometricPrecision; image-rendering:optimizeQuality; fill-rule:evenodd; clip-rule:evenodd"
viewBox="0 0 137.66 137.87"
 xmlns:xlink="http://www.w3.org/1999/xlink"
 xmlns:xodm="http://www.corel.com/coreldraw/odm/2003">
 <defs>
  <style type="text/css">
   <![CDATA[
    .fil0 {fill:#B18CF9}
   ]]>
  </style>
 </defs>
 <g id="Layer_x0020_1">
  <metadata id="CorelCorpID_0Corel-Layer"/>
  <g id="_1996917990672">
   <path class="fil0" d="M47.42 50.61c0.39,0 2.78,1.48 3.3,1.79 4.01,2.42 4.67,1.51 7.76,-0.37 1.29,-0.79 2.9,-1.43 3.95,-2.21 2.23,-1.64 1.89,-4.37 1.85,-6.99 -0.05,-3.1 -1.06,-2.4 8.85,-2.4 2.3,0 -1.1,6.62 2.66,9.39 1.11,0.82 2.56,1.29 3.82,2.07 1.21,0.76 2.39,1.93 4.23,1.93 2.48,0 5.99,-3.21 6.96,-3.21 0.92,0 1.77,2.1 2.73,3.7 0.87,1.45 2.06,3.16 2.09,4.61 -1.05,0.28 -6.96,3.2 -6.96,6.16 0,5.54 -0.91,8.6 2.62,10.77 0.72,0.44 1.29,0.72 2.05,1.17 0.66,0.39 1.66,1.01 2.3,1.19 -0.03,1.18 -0.37,1.65 -0.81,2.4 -0.41,0.68 -0.71,1.26 -1.17,2.04 -0.42,0.72 -0.86,1.37 -1.21,2 -0.39,0.7 -0.67,1.86 -1.62,1.86 -0.97,0 -4.48,-3.21 -6.96,-3.21 -1.78,0 -2.92,1.08 -4.07,1.82 -4.6,2.98 -5.96,1.31 -5.83,9.16 0.05,3.1 1.06,2.4 -8.85,2.4 -1.08,0 -0.84,-0.99 -0.82,-2.13 0.02,-0.98 0.03,-1.99 0.03,-2.97 -0.02,-4.38 -2.83,-4.69 -5.65,-6.4 -1.22,-0.74 -2.36,-1.89 -4.27,-1.89 -2.48,0 -5.99,3.21 -6.96,3.21 -0.96,0 -1.81,-2.19 -2.69,-3.73 -0.68,-1.18 -2.09,-2.9 -2.13,-4.57 0.88,-0.2 6.96,-3.15 6.96,-6.16 0,-9.24 0.86,-8.57 -4.67,-11.93 -0.83,-0.51 -1.38,-0.98 -2.29,-1.19 0.04,-1.63 2.13,-4.55 3.2,-6.44 0.39,-0.7 0.67,-1.86 1.62,-1.86zm7.23 -1.07c-1.51,0 -5.14,-3.21 -6.96,-3.21 -4.2,0 -5.47,4.02 -7.78,8.02 -1.35,2.33 -2.51,3.74 -0.59,6.78 0.67,1.06 1.17,1.21 2.19,1.82 0.82,0.49 1.62,0.93 2.55,1.47 1.94,1.12 1.21,0.51 1.21,5.75 0,2.34 1.3,0.97 -3.6,3.9 -1.01,0.61 -1.61,0.87 -2.27,1.74 -2.46,3.28 -0.16,5.97 2.23,10.04 2.17,3.69 3.88,6.71 9.25,3.58 4.22,-2.46 2.86,-2.33 6.38,-0.2 3.01,1.82 3.03,0.46 3,5.3 -0.01,1.27 -0.06,2.56 0.28,3.47 1.5,3.99 7.49,2.96 12.57,2.96 2.19,0 3.89,-1.47 4.52,-2.97 0.39,-0.91 0.31,-2.17 0.3,-3.45 -0.01,-2.56 -0.36,-3.61 1.41,-4.48l4.21 -2.49c1.51,0 5.14,3.21 6.96,3.21 4.2,0 5.47,-4.02 7.78,-8.02 1.92,-3.32 2.79,-6 -1.6,-8.6 -0.64,-0.38 -3.44,-1.77 -3.78,-2.38l0.01 -4.83c0,-1.68 -0.78,-1.37 1.04,-2.44 4.17,-2.43 8.08,-3.97 4.53,-9.83 -0.71,-1.18 -1.22,-2.19 -1.94,-3.42 -2.36,-4.01 -4.03,-6.7 -9.41,-3.48 -4.79,2.87 -2.44,1.81 -7.62,-0.64 -0.04,-0.02 -0.69,-0.34 -0.72,-0.35 -1.87,-1.32 -0.19,-5.06 -1.16,-7.67 -1.5,-3.99 -7.49,-2.96 -12.57,-2.96 -1.73,0 -3.14,0.93 -3.95,1.94 -1.08,1.34 -0.88,2.76 -0.87,5.02 0.02,4.2 0.39,2.76 -3.67,5.17 -0.3,0.18 -1.93,1.26 -1.96,1.26z"/>
   <path class="fil0" d="M12.61 87.83c0,4.5 2.53,5.42 2.68,7.23 -2.77,0 -5.53,0 -8.3,0 -2.84,0 -6.43,-0.67 -6.43,2.14l0 35.88c0,1.8 2.21,4.02 4.02,4.02l5.21 0c1.2,-0.18 2.02,-0.68 2.02,-1.87 0,-0.72 -0.28,-1.32 -0.7,-1.7 -1.5,-1.35 -6.53,0.81 -6.53,-1.51l0 -32.67 9.91 0c3.01,0 5.09,-1.91 5.09,-4.82 0,-3.02 -2.68,-2.83 -2.68,-6.69 0,-3.72 4.71,-6.05 7.81,-3.26 1.98,1.77 1.88,4.67 0.29,6.54 -3.03,3.57 -0.97,8.23 3.15,8.23l10.18 0 0 10.71c-1.12,-0.09 -0.7,-0.1 -1.43,-0.71 -5.81,-4.83 -14.37,-0.18 -14.37,5.8 0,2.77 -0.22,2.82 0.97,5.19 2.4,4.76 9.16,6.2 13.01,2.91 0.69,-0.59 0.67,-0.77 1.81,-0.86l0 10.71 -19.28 0c-2.57,0 -2.57,4.02 0,4.02l21.42 0c1.6,0 2.14,-1.08 2.14,-2.68l0 -11.51c0,-2.68 -2.14,-4.82 -4.82,-4.82 -3.41,0 -2.71,2.68 -6.69,2.68 -4.31,0 -5.93,-5.44 -3.15,-7.97 1.82,-1.65 4.38,-1.87 6.29,-0.26 1.86,1.58 1.41,1.53 4.09,1.53 2.74,0 4.28,-2.3 4.28,-5.09 0,-14.96 1.32,-13.92 -6.16,-13.92 -2.95,0 -5.89,0 -8.84,0 0.17,-2.07 2.68,-1.69 2.68,-7.5 0,-4.31 -3.98,-8.3 -8.3,-8.3 -2.99,0 -4.71,0.51 -6.9,2.74 -1.2,1.22 -2.47,3.53 -2.47,5.83z"/>
   <path class="fil0" d="M88.36 125.82c4.5,0 5.42,-2.53 7.23,-2.68 0,2.77 0,5.53 0,8.3 0,2.84 -0.67,6.43 2.14,6.43l35.88 0c1.8,0 4.02,-2.21 4.02,-4.02l0 -5.21c-0.18,-1.2 -0.68,-2.02 -1.87,-2.02 -0.72,0 -1.32,0.28 -1.7,0.7 -1.35,1.5 0.81,6.53 -1.51,6.53l-32.67 0 0 -9.91c0,-3.01 -1.91,-5.09 -4.82,-5.09 -3.02,0 -2.83,2.68 -6.69,2.68 -3.72,0 -6.05,-4.71 -3.26,-7.81 1.77,-1.98 4.67,-1.88 6.54,-0.29 3.57,3.03 8.23,0.97 8.23,-3.15l0 -10.18 10.71 0c-0.09,1.12 -0.1,0.7 -0.71,1.43 -4.83,5.81 -0.18,14.37 5.8,14.37 2.77,0 2.82,0.22 5.19,-0.97 4.76,-2.4 6.2,-9.16 2.91,-13.01 -0.59,-0.69 -0.77,-0.67 -0.86,-1.81l10.71 0 0 19.28c0,2.57 4.02,2.57 4.02,0l0 -21.42c0,-1.6 -1.08,-2.14 -2.68,-2.14l-11.51 0c-2.68,0 -4.82,2.14 -4.82,4.82 0,3.41 2.68,2.71 2.68,6.69 0,4.31 -5.44,5.93 -7.97,3.15 -1.65,-1.82 -1.87,-4.38 -0.26,-6.29 1.58,-1.86 1.53,-1.41 1.53,-4.09 0,-2.74 -2.3,-4.28 -5.09,-4.28 -14.96,0 -13.92,-1.32 -13.92,6.16 0,2.95 0,5.89 0,8.84 -2.07,-0.17 -1.69,-2.68 -7.5,-2.68 -4.31,0 -8.3,3.98 -8.3,8.3 0,2.99 0.51,4.71 2.74,6.9 1.22,1.2 3.53,2.47 5.83,2.47z"/>
   <path class="fil0" d="M95.62 2.68l0 11.51c0,2.54 2.11,4.82 4.55,4.82 3.81,0 2.96,-2.68 6.96,-2.68 4.31,0 5.93,5.44 3.15,7.97 -4.26,3.86 -6.78,-1.27 -9.04,-1.27 -3.02,0 -5.62,0.72 -5.62,5.09 0,14.96 -1.32,13.92 6.16,13.92 2.95,0 5.89,0 8.84,0 -0.12,1.49 -0.49,0.72 -1.6,2.68 -4.91,8.61 6.65,17.99 14.13,10.38 2.51,-2.56 3.17,-6.4 1.59,-9.77 -0.91,-1.93 -1.68,-1.86 -1.79,-3.29 2.77,0 5.53,0 8.3,0 2.84,0 6.43,0.67 6.43,-2.14l0 -35.88c0,-1.8 -2.21,-4.02 -4.02,-4.02l-10.44 0c-0.54,0 -1.61,0.73 -1.61,1.87 0,3.02 4.27,2.19 9.11,2.14 1.35,-0.02 2.94,-0.29 2.94,1.08l0 32.67 -10.44 0c-2.62,0 -4.55,2.17 -4.55,4.82 0,3.02 2.68,2.83 2.68,6.69 0,3.72 -4.71,6.05 -7.81,3.26 -1.98,-1.77 -1.88,-4.67 -0.29,-6.54 3.03,-3.57 0.97,-8.23 -3.15,-8.23l-10.18 0 0 -10.71c2.07,0.17 1.69,2.68 7.5,2.68 4.53,0 8.3,-4.2 8.3,-7.76 0,-3.27 -0.05,-4.79 -2.74,-7.44 -3.12,-3.08 -8.28,-3.19 -11.24,-0.66 -0.69,0.59 -0.67,0.77 -1.81,0.86l0 -10.71 14.73 0c1.99,0 2.48,-4.02 -0.27,-4.02l-16.6 0c-1.6,0 -2.14,1.08 -2.14,2.68z"/>
   <path class="fil0" d="M2.68 42.72l11.51 0c2.54,0 4.82,-2.11 4.82,-4.55 0,-3.81 -2.68,-2.96 -2.68,-6.96 0,-4.31 5.44,-5.93 7.97,-3.15 3.86,4.26 -1.27,6.78 -1.27,9.04 0,3.02 0.72,5.62 5.09,5.62 14.96,0 13.92,1.32 13.92,-6.16 0,-2.94 0,-5.89 0,-8.84 1.49,0.12 0.72,0.49 2.68,1.6 8.61,4.91 17.99,-6.65 10.38,-14.13 -2.56,-2.51 -6.4,-3.17 -9.77,-1.59 -1.93,0.91 -1.86,1.67 -3.29,1.79 0,-2.77 0,-5.53 0,-8.3 0,-2.84 0.67,-6.43 -2.14,-6.43l-35.88 0c-1.8,0 -4.02,2.21 -4.02,4.02l0 10.44c0,0.54 0.73,1.61 1.87,1.61 3.02,0 2.19,-4.27 2.14,-9.11 -0.02,-1.35 -0.29,-2.94 1.08,-2.94l32.67 0 0 10.44c0,2.62 2.17,4.55 4.82,4.55 3.02,0 2.83,-2.68 6.69,-2.68 3.72,0 6.05,4.71 3.26,7.81 -1.77,1.98 -4.67,1.88 -6.54,0.29 -3.57,-3.03 -8.23,-0.97 -8.23,3.15l0 10.18 -10.71 0c0.17,-2.07 2.68,-1.69 2.68,-7.5 0,-4.53 -4.2,-8.3 -7.76,-8.3 -3.27,0 -4.79,0.05 -7.44,2.74 -3.08,3.12 -3.19,8.28 -0.66,11.24 0.59,0.69 0.77,0.67 0.86,1.81l-10.71 0 0 -14.73c0,-1.99 -4.02,-2.48 -4.02,0.27l0 16.6c0,1.6 1.08,2.14 2.68,2.14z"/>
   <path class="fil0" d="M57.6 68.55c0,-9.85 12.3,-15.43 19.62,-8.11 7.23,7.23 1.86,19.62 -8.11,19.62 -6.15,0 -11.51,-5.36 -11.51,-11.51zm-4.02 -0.8c0,5.07 1.3,8.68 4.48,11.86 5.98,5.98 16.09,6.02 22.11,0 6,-5.99 6,-16.11 0,-22.11 -9.81,-9.81 -26.58,-2.37 -26.58,10.25z"/>
   <path class="fil0" d="M65.9 68.55c0,-4.14 6.42,-4.14 6.42,0 0,4.14 -6.42,4.14 -6.42,0zm-4.02 -0.8c0,2.46 0.1,4.12 2.2,6.1 4.1,3.86 12.26,1.97 12.26,-5.57 0,-3.88 -3.46,-6.96 -6.43,-6.96l-1.61 0c-3.03,0 -6.43,3.4 -6.43,6.43z"/>
   <path class="fil0" d="M19.57 59.44c0,3.28 -0.35,5.09 2.68,5.09 2.1,0 1.61,-4.18 1.61,-5.89 0,-2.78 -4.28,-3.25 -4.28,0.8z"/>
   <path class="fil0" d="M73.13 21.15c0,2.72 2.82,2.14 5.89,2.14 2.78,0 3.25,-4.28 -0.8,-4.28 -2.27,0 -5.09,-0.37 -5.09,2.14z"/>
   <path class="fil0" d="M57.06 115.94c0,2.43 3.39,2.14 5.09,2.14 4.12,0 3.6,-4.28 0.8,-4.28 -2.86,0 -5.89,-0.6 -5.89,2.14z"/>
   <path class="fil0" d="M114.36 74.71c0,3.44 -0.61,5.89 2.41,5.89 2.33,0 3,-8.03 -0.27,-8.03 -1.22,0 -2.14,0.64 -2.14,2.14z"/>
   <path class="fil0" d="M49.29 118.08c3.95,0 3.64,-4.28 0.8,-4.28l-1.88 0c-1.75,0 -3.23,4.28 1.07,4.28z"/>
   <path class="fil0" d="M19.57 48.73c0,3.95 4.28,3.64 4.28,0.8l0 -1.88c0,-1.75 -4.28,-3.23 -4.28,1.07z"/>
   <path class="fil0" d="M114.36 87.56l0 1.87c0,1.75 4.28,3.23 4.28,-1.07 0,-3.95 -4.28,-3.64 -4.28,-0.8z"/>
   <path class="fil0" d="M72.86 118.08c3.95,0 3.64,-4.28 0.8,-4.28l-1.34 0c-2.8,0 -3.51,4.28 0.54,4.28z"/>
   <path class="fil0" d="M19.57 72.3c0,3.95 4.28,3.64 4.28,0.8l0 -1.34c0,-2.8 -4.28,-3.51 -4.28,0.54z"/>
   <path class="fil0" d="M114.36 64l0 1.34c0,2.8 4.28,3.51 4.28,-0.54 0,-3.95 -4.28,-3.64 -4.28,-0.8z"/>
   <path class="fil0" d="M62.41 21.15c0,2.36 2.12,2.14 3.48,2.14 2.8,0 3.51,-4.28 -0.54,-4.28 -1.5,0 -2.95,0.79 -2.95,2.14z"/>
   <path class="fil0" d="M85.98 21.15c0,2.36 2.12,2.14 3.48,2.14 2.8,0 3.51,-4.28 -0.54,-4.28 -1.49,0 -2.95,0.79 -2.95,2.14z"/>
  </g>
 </g>
</svg>
