<?xml version="1.0" encoding="UTF-8"?>
<!DOCTYPE svg PUBLIC "-//W3C//DTD SVG 1.1//EN" "http://www.w3.org/Graphics/SVG/1.1/DTD/svg11.dtd">
<!-- Creator: CorelDRAW -->
<svg xmlns="http://www.w3.org/2000/svg" xml:space="preserve" width="0.675217in" height="0.67522in" version="1.1" style="shape-rendering:geometricPrecision; text-rendering:geometricPrecision; image-rendering:optimizeQuality; fill-rule:evenodd; clip-rule:evenodd"
viewBox="0 0 201.55 201.55"
 xmlns:xlink="http://www.w3.org/1999/xlink"
 xmlns:xodm="http://www.corel.com/coreldraw/odm/2003">
 <defs>
  <style type="text/css">
   <![CDATA[
    .fil0 {fill:#B18CF9;fill-rule:nonzero}
   ]]>
  </style>
 </defs>
 <g id="Layer_x0020_1">
  <metadata id="CorelCorpID_0Corel-Layer"/>
  <g id="service-1.svg">
   <g id="service-1">
    <path id="Path_543" class="fil0" d="M128.63 52.98c5.56,0 10.08,-4.51 10.08,-10.08 0,-5.56 -4.51,-10.08 -10.08,-10.08 -5.56,0 -10.08,4.51 -10.08,10.08 0,2.28 2.08,1.68 3.36,3.36l-16.8 23.51c-0.55,-0.08 -1.12,-0.12 -1.68,-0.12 -0.56,0 -1.12,0.04 -1.68,0.12 -2.58,0.24 -4.98,1.44 -6.72,3.36l-10.08 -6.72c0.03,-0.56 0.05,-1.12 0.05,-1.68 0,-0.56 -0.02,-1.12 -0.06,-1.68 0,-5.57 -4.51,-10.08 -10.08,-10.08 -5.57,0 -10.08,4.51 -10.08,10.08 -0.03,0.56 -0.06,1.12 -0.06,1.68 0,0.56 0.02,1.12 0.06,1.68l-10.08 6.72c-3,-1.99 -6.48,-3.15 -10.08,-3.36 -5.57,-0 -10.08,4.51 -10.08,10.08 0,5.56 4.51,10.08 10.08,10.08 5.56,0 10.08,-4.51 10.08,-10.08 0,-0.73 0.15,0.67 0,0l13.44 -6.72c1.58,2.11 4.07,3.36 6.72,3.36 2.64,0 5.13,-1.24 6.72,-3.36l10.08 6.72c-0.15,0.67 0,-0.73 0,0 -0,5.56 4.51,10.08 10.08,10.08 5.56,0 10.08,-4.51 10.08,-10.08 -0.47,-2.51 -1.64,-4.84 -3.36,-6.72l16.8 -23.52c0.99,0.33 2.26,3.36 3.36,3.36zm0 -16.8c3.21,0.98 5.73,3.5 6.72,6.72 0,2.23 -4.48,3.36 -6.72,3.36 -0.14,0.02 -0.28,0.03 -0.42,0.03 -1.64,0 -2.97,-1.33 -2.97,-2.97 0,-0.14 0.01,-0.28 0.03,-0.41 0,-2.25 1.13,-6.72 3.36,-6.72zm-83.98 47.03c-1.85,0 -3.36,-1.51 -3.36,-3.36 0,-1.86 1.51,-3.36 3.36,-3.36 2.23,0 6.72,1.12 6.72,3.36 0,2.23 -4.49,3.36 -6.72,3.36zm30.23 -13.44c-2.23,0 -3.36,-4.48 -3.36,-6.72 0,-1.85 1.5,-3.36 3.36,-3.36 1.85,0 3.36,1.5 3.36,3.36 -0,2.23 -1.13,6.72 -3.36,6.72zm26.87 13.44c-1.85,0 -3.36,-1.51 -3.36,-3.36 0,-1.86 1.5,-3.36 3.36,-3.36 1.85,0 3.36,1.5 3.36,3.36 0.02,0.14 0.03,0.28 0.03,0.41 0,1.64 -1.33,2.97 -2.97,2.97 -0.14,0 -0.28,-0.01 -0.41,-0.03z" data-name="Path 543"/>
    <path id="Path_544" class="fil0" d="M167.96 148.75l-157.89 0c-1.69,-0.3 -3.03,-1.61 -3.36,-3.3l-0 -122.11c0.33,-1.69 1.67,-3 3.36,-3.3l13.44 0c1.83,0 3.31,-1.48 3.31,-3.3 0,-1.82 -1.48,-3.3 -3.3,-3.3l-13.44 0c-5.26,0.52 -9.46,4.64 -10.07,9.9l-0 122.12c0.62,5.25 4.81,9.38 10.08,9.9l20.15 0 0 6.6c0,0.02 0,0.04 0,0.06 0,3.61 2.93,6.54 6.54,6.54 0.06,0 0.12,-0 0.18,-0l30.23 0 -13.44 26.4c-0.77,1.47 -1.49,2.55 0,3.3 0.44,0.22 -0.47,3.3 0,3.3 1.1,0 2.82,-2.27 3.36,-3.3l16.8 -29.7 33.59 0 16.8 29.7c0.54,1.03 -1.1,3.3 0,3.3 0.47,0 2.92,-3.08 3.36,-3.3 1.49,-0.75 0.77,-1.83 0,-3.3l-13.44 -26.4 30.23 0c0.06,-0 0.12,0 0.18,0 3.61,0 6.54,-2.93 6.54,-6.54 0,-0.02 0,-0.04 0,-0.06l0 -6.6 16.8 0c0.03,-0 0.07,0 0.1,0 1.82,0 3.3,-1.48 3.3,-3.3 0,-1.82 -1.48,-3.3 -3.3,-3.3 -0.04,0 -0.07,0 -0.1,0l0 0zm-23.52 13.2c0,0.45 0.46,0 0,0l-107.5 0c-0.46,0 0,0.45 0,0l0 -6.6 107.5 0 0 6.6z" data-name="Path 544"/>
    <path id="Path_545" class="fil0" d="M30.22 20.16l134.62 0c1.68,0.34 2.99,1.67 3.28,3.36l0 30.23c0,1.68 1.64,0 3.28,0 1.64,0 3.28,1.68 3.28,0l0 -30.23c-0.51,-5.26 -4.61,-9.45 -9.85,-10.08l-62.38 -0 0 -3.36c0,-4.2 -2.46,-10.08 -6.57,-10.08l-19.7 0c-4.11,0 -6.57,5.88 -6.57,10.08l0 3.36 -39.4 -0c-1.64,0 0,1.68 0,3.36 0,1.68 -1.64,3.36 0,3.36zm45.96 -10.08c0,-0.85 -0.83,-3.36 0,-3.36l19.7 0c0.83,0 0,2.51 0,3.36l0 3.36 -19.7 -0 0 -3.36z" data-name="Path 545"/>
    <path id="Path_546" class="fil0" d="M42.26 105.39c-1.8,0.12 -3.24,1.56 -3.36,3.36l0 26.87c0.12,1.8 1.56,3.24 3.36,3.36l10.08 0c1.8,-0.12 3.24,-1.56 3.36,-3.36l0 -26.87c-0.12,-1.8 -1.56,-3.24 -3.36,-3.36l-10.08 0zm6.72 26.87l-3.36 0 0 -20.16 3.36 0 0 20.16z" data-name="Path 546"/>
    <path id="Path_547" class="fil0" d="M68.14 88.73c-1.8,0.12 -3.23,1.56 -3.36,3.36l0 43.67c0.12,1.8 1.56,3.23 3.36,3.36l13.44 0c1.8,-0.13 3.24,-1.56 3.36,-3.36l0 -43.67c-0.12,-1.8 -1.56,-3.23 -3.36,-3.36l-13.44 0zm10.08 43.67l-6.72 0 0 -36.95 6.72 0 0 36.95z" data-name="Path 547"/>
    <path id="Path_548" class="fil0" d="M94.06 105.39c-1.8,0.12 -3.24,1.56 -3.36,3.36l0 26.87c0.12,1.8 1.56,3.24 3.36,3.36l13.44 0c1.8,-0.12 3.24,-1.56 3.36,-3.36l0 -26.87c-0.12,-1.8 -1.56,-3.24 -3.36,-3.36l-13.44 0zm10.08 26.87l-6.72 0 0 -20.16 6.72 0 0 20.16z" data-name="Path 548"/>
    <path id="Path_549" class="fil0" d="M123.29 122.07c-1.8,0.12 -3.24,1.56 -3.36,3.36l0 10.08c0.12,1.8 1.56,3.23 3.36,3.36l10.08 0c1.86,-0 3.36,-1.51 3.36,-3.36 0,-1.85 -1.5,-3.36 -3.36,-3.36l-10.08 0 0 -6.72c0,-1.68 1.68,-3.36 0,-3.36z" data-name="Path 549"/>
    <path id="Path_550" class="fil0" d="M198.19 152.39l-16.8 -30.23c4.67,-4.69 8.14,-10.47 10.08,-16.8 1.04,-3.6 1.58,-7.33 1.58,-11.09 0,-6.69 -1.71,-13.29 -4.95,-19.15 -6.97,-11.86 -19.72,-19.14 -33.48,-19.14 -7.15,0 -14.17,1.98 -20.27,5.71 -18.96,10.94 -27.74,34.79 -16.8,53.75 5.14,8.65 13.67,14.75 23.52,16.79 3.42,0.92 6.63,3.36 10.08,3.36 3.02,0 7.15,-2.69 10.08,-3.36l16.8 30.23c1.99,3.8 5.79,6.34 10.07,6.72 1.96,0 4.91,1.05 6.72,0 3.8,-2 6.33,-5.8 6.72,-10.08 0,-2.01 -2.35,-4.96 -3.36,-6.72zm-53.75 -26.87c-8.68,-2.32 -15.66,-5.66 -20.16,-13.44 -9.27,-16.06 -5.98,-37.76 10.08,-47.03 4.51,-2.26 9.48,-3.44 14.53,-3.44 0.76,0 1.52,0.03 2.27,0.08 0.04,0 0.1,0 0.14,0 12.26,0 23.66,6.36 30.09,16.79 2.95,4.61 4.52,9.97 4.52,15.45 0,2.73 -0.39,5.45 -1.16,8.07 -2.74,8.65 -8.78,15.9 -16.8,20.16 -4.61,2.95 -9.97,4.52 -15.44,4.52 -2.73,0 -5.45,-0.39 -8.07,-1.16l0 0zm47.03 36.95c-2.61,1.51 -5.21,-0.75 -6.72,-3.36l-16.8 -26.87c1.68,-0.67 1.76,-2.44 3.36,-3.36 1.6,-0.92 5.28,-2.25 6.72,-3.36l16.8 30.23c0.48,0.84 0,2.41 0,3.36 0,1.95 -1.68,2.39 -3.36,3.36z" data-name="Path 550"/>
    <path id="Path_551" class="fil0" d="M181.4 102.61c2.14,-6.91 -0.29,-13.63 -3.36,-20.16 -0.72,-1.52 -1.84,-0.72 -3.36,0 -1.52,0.72 -0.72,1.84 0,3.36 1.02,2.68 1.54,5.53 1.54,8.4 0,2.87 -0.53,5.72 -1.55,8.4 -1.57,5.58 -5.16,10.37 -10.08,13.44 -5.27,3.04 -10.92,1.57 -16.8,0 -5.68,-1.35 -10.55,-5.01 -13.44,-10.08 -6.27,-10.87 -4.15,-23.96 6.72,-30.23 7.95,-4.59 19.55,-5.54 26.87,0 1.34,1.01 2.35,1.34 3.36,0 1.01,-1.34 1.34,-2.35 0,-3.36 -9.27,-7.01 -23.51,-9.17 -33.59,-3.36 -6.67,3.85 -11.44,12.71 -13.44,20.16 -0.56,2.08 -0.84,4.23 -0.84,6.38 0,4.91 1.46,9.7 4.19,13.78 3.52,6.59 9.6,11.45 16.8,13.44 1.11,0.16 2.24,0.25 3.36,0.25 1.12,0 2.25,-0.09 3.36,-0.25 0.39,0.01 0.79,0.02 1.19,0.02 5.38,0 10.71,-1.16 15.61,-3.38 6.39,-3.75 11.18,-9.73 13.44,-16.79l0 0z" data-name="Path 551"/>
   </g>
  </g>
 </g>
</svg>
