<?xml version="1.0" encoding="UTF-8"?>
<!DOCTYPE svg PUBLIC "-//W3C//DTD SVG 1.1//EN" "http://www.w3.org/Graphics/SVG/1.1/DTD/svg11.dtd">
<!-- Creator: CorelDRAW -->
<svg xmlns="http://www.w3.org/2000/svg" xml:space="preserve" width="0.583398in" height="0.625268in" version="1.1" style="shape-rendering:geometricPrecision; text-rendering:geometricPrecision; image-rendering:optimizeQuality; fill-rule:evenodd; clip-rule:evenodd"
viewBox="0 0 152.65 163.6"
 xmlns:xlink="http://www.w3.org/1999/xlink"
 xmlns:xodm="http://www.corel.com/coreldraw/odm/2003">
 <defs>
  <style type="text/css">
   <![CDATA[
    .fil0 {fill:#B18CF9;fill-rule:nonzero}
   ]]>
  </style>
 </defs>
 <g id="Layer_x0020_1">
  <metadata id="CorelCorpID_0Corel-Layer"/>
  <g id="_2245892338384">
   <g id="service-6">
    <path id="Path_641" class="fil0" d="M71.04 48.15l9.6 0c2.65,-0 4.8,-2.15 4.8,-4.8 0,-2.65 -2.15,-4.8 -4.8,-4.8l-9.6 0c-2.65,-0 -4.8,2.15 -4.8,4.8 0,2.65 2.15,4.8 4.8,4.8l0 0zm0 0z" data-name="Path 641"/>
    <path id="Path_642" class="fil0" d="M71.04 67.31l9.6 0c2.65,-0 4.8,-2.15 4.8,-4.8 0,-2.65 -2.15,-4.8 -4.8,-4.8l-9.6 0c-2.65,0 -4.8,2.15 -4.8,4.8 0,2.65 2.15,4.8 4.8,4.8l0 0zm0 0z" data-name="Path 642"/>
    <path id="Path_643" class="fil0" d="M80.64 76.88l-9.6 0c-2.65,0 -4.8,2.15 -4.8,4.8 0,2.65 2.15,4.8 4.8,4.8l9.6 0c2.65,-0 4.8,-2.15 4.8,-4.8 0,-2.65 -2.15,-4.8 -4.8,-4.8zm0 0z" data-name="Path 643"/>
    <path id="Path_644" class="fil0" d="M119.04 48.15l9.6 0c2.65,-0 4.8,-2.15 4.8,-4.8 0,-2.65 -2.15,-4.8 -4.8,-4.8l-9.6 0c-2.65,-0 -4.8,2.15 -4.8,4.8 0,2.65 2.15,4.8 4.8,4.8l0 0zm0 0z" data-name="Path 644"/>
    <path id="Path_645" class="fil0" d="M119.04 67.31l9.6 0c2.65,-0 4.8,-2.15 4.8,-4.8 0,-2.65 -2.15,-4.8 -4.8,-4.8l-9.6 0c-2.65,0 -4.8,2.15 -4.8,4.8 0,2.65 2.15,4.8 4.8,4.8l0 0zm0 0z" data-name="Path 645"/>
    <path id="Path_646" class="fil0" d="M128.64 76.88l-9.6 0c-2.65,0 -4.8,2.15 -4.8,4.8 0,2.65 2.15,4.8 4.8,4.8l9.6 0c2.65,-0 4.8,-2.15 4.8,-4.8 0,-2.65 -2.15,-4.8 -4.8,-4.8zm0 0z" data-name="Path 646"/>
    <path id="Path_647" class="fil0" d="M23.04 48.15l9.6 0c2.65,-0 4.8,-2.15 4.8,-4.8 0,-2.65 -2.15,-4.8 -4.8,-4.8l-9.6 0c-2.65,-0 -4.8,2.15 -4.8,4.8 0,2.65 2.15,4.8 4.8,4.8l0 0zm0 0z" data-name="Path 647"/>
    <path id="Path_648" class="fil0" d="M13.64 163.6l125.38 0c0.16,0 0.33,0.01 0.5,0.01 7.26,0 13.14,-5.88 13.14,-13.14 0,-0.16 -0.01,-0.33 -0.01,-0.5l0 -136.28c0,-0.16 0.01,-0.33 0.01,-0.49 0,-7.26 -5.88,-13.14 -13.14,-13.14 -0.16,0 -0.33,0.01 -0.5,0.01l-29.98 0c-0.38,-0.04 -0.76,-0.06 -1.14,-0.06 -2.61,0 -5.13,1 -7.04,2.79 -2.55,-2.28 -7.22,-2.73 -10.9,-2.73l-27.26 0c-3.68,0 -8.35,0.44 -10.9,2.73 -2.55,-2.28 -7.22,-2.73 -10.9,-2.73l-27.26 0c-0.16,-0 -0.33,-0.01 -0.5,-0.01 -7.26,0 -13.14,5.88 -13.14,13.14 0,0.16 0.01,0.33 0.01,0.5l0 136.28c-0,0.16 -0.01,0.33 -0.01,0.49 0,7.26 5.88,13.14 13.14,13.14 0.16,0 0.33,-0.01 0.5,-0.01l-0 0zm128.1 -49.06l-38.16 -8.18 0 -79.04 38.16 0 0 87.22zm-46.33 -10.9l-38.16 -5.45 0 -70.86 38.16 0 0 76.32zm-49.06 -38.16l-38.16 -8.18 0 -29.98 38.16 0 0 38.16zm95.39 84.49c0,2.64 -0.08,2.73 -2.73,2.73l-125.38 0c-2.65,0 -5.45,-0.08 -5.45,-2.73l0 -81.77 38.16 8.18 0 24.53c0,2.28 3.21,5 5.45,5.45 4.98,0.99 85.23,15.41 89.94,16.35l-0 27.25zm-32.71 -141.73l29.98 0c2.65,0 2.73,2.81 2.73,5.45l0 5.45 -38.16 0 0 -5.45c0.25,-2.9 2.55,-5.2 5.45,-5.45l0 -0zm-46.33 0l27.25 0c2.9,0.25 5.2,2.55 5.45,5.45l0 5.45 -38.16 -0 0 -5.45c0.26,-2.9 2.55,-5.2 5.45,-5.45l-0 -0zm-49.06 0l27.26 0c2.9,0.25 5.2,2.55 5.45,5.45l0 5.45 -38.16 -0 0 -5.45c0.26,-2.9 2.55,-5.2 5.45,-5.45l-0 -0zm0 0z" data-name="Path 648"/>
    <path id="Path_649" class="fil0" d="M51.84 115.12l-28.8 0c-2.65,-0 -4.8,2.15 -4.8,4.8l0 19.52c0,2.65 2.15,4.8 4.8,4.8l28.8 0c2.65,-0 4.8,-2.15 4.8,-4.8l0 -19.52c0,-2.65 -2.15,-4.8 -4.8,-4.8l-0 0zm-4.8 19.52l-19.2 0 0 -9.92 19.2 0 0 9.92zm0 0z" data-name="Path 649"/>
   </g>
  </g>
 </g>
</svg>
