<?xml version="1.0" encoding="UTF-8"?>
<!DOCTYPE svg PUBLIC "-//W3C//DTD SVG 1.1//EN" "http://www.w3.org/Graphics/SVG/1.1/DTD/svg11.dtd">
<!-- Creator: CorelDRAW -->
<svg xmlns="http://www.w3.org/2000/svg" xml:space="preserve" width="0.775087in" height="0.695287in" version="1.1" style="shape-rendering:geometricPrecision; text-rendering:geometricPrecision; image-rendering:optimizeQuality; fill-rule:evenodd; clip-rule:evenodd"
viewBox="0 0 2748.23 2465.29"
 xmlns:xlink="http://www.w3.org/1999/xlink"
 xmlns:xodm="http://www.corel.com/coreldraw/odm/2003">
 <defs>
  <style type="text/css">
   <![CDATA[
    .fil0 {fill:#B18CF9}
   ]]>
  </style>
 </defs>
 <g id="Layer_x0020_1">
  <metadata id="CorelCorpID_0Corel-Layer"/>
  <g id="_1996917978480">
   <path class="fil0" d="M972.38 1610.79c9.7,-41.57 39.46,-76.27 66.38,-103.2 77.45,-77.52 153.21,-88.64 261.63,-88.77 34.94,-0.04 43.79,-6 78.75,-6.03 132.85,-0.21 227.13,-15.66 328.09,56.59 38.7,27.7 73.01,69.71 95.99,113.14 -16.25,10.87 -23.3,22.31 -38.7,34.76 -14.59,11.77 -26.36,21.12 -41.18,32.32 -84.82,63.88 -155.58,89.55 -257.62,109.74 -153.81,30.42 -331.38,-22.4 -451.45,-116.94 -17.87,-14.09 -20.97,-26.02 -41.88,-31.6zm395.64 -746.04c118.45,0 226.06,105.73 226.06,197.81 0,77.94 -0.75,129.43 -63.35,190.94 -56.72,55.74 -105.21,63.39 -179.67,63.39 -67.23,0 -132.28,-47.22 -161.69,-86.13l-9.12 -14.02c-21,-34.91 -39.74,-89.97 -37.59,-130.79 3.42,-64.94 32.16,-115.84 68.46,-152.03 37.79,-37.72 97.05,-69.17 156.9,-69.17zm-576.48 362.64l-73.47 0c0,229.91 168.67,447.54 339.02,536.07 64.3,33.41 55.52,28.46 123.64,51.58 85.88,29.11 210.34,37.27 313.21,17.74 269.64,-51.25 479.15,-263.37 526.45,-519.13 7.01,-37.83 18.25,-118.03 12.19,-158.29 -8.08,-53.86 -7.5,-109.05 -25.89,-150.02l-79.14 -0.14c4.76,21.8 11.82,40.2 16.63,63.32 24.89,119.14 10.29,232.84 -32.68,339.68 -10.41,25.85 -39.55,87.74 -57.42,100.84l-52.22 -60.82c-57.18,-57.04 -152.69,-112.4 -241.67,-114.38 9.35,-13.97 70.98,-55.96 99.82,-143.22 91.67,-277.28 -224.85,-525.67 -477.75,-336.44 -107.77,80.62 -141.7,228.57 -93.77,352.17 24.36,62.76 64.95,99.67 109.96,138.8 -62.64,5.21 -131.5,40.19 -172.09,70.91 -33,25 -66.68,57.44 -89.09,91.78 -8.99,13.81 -14.77,26.1 -27.05,35.11 -4.69,-17.57 -47.38,-67.41 -75.94,-138.81l-34.81 -123.37c-3.66,-23.91 -1.56,-33.7 -7.93,-53.38z"/>
   <path class="fil0" d="M893.25 484.53c-28.46,0 -58.94,3.22 -79.12,-5.42 0,96.85 -29.79,138.95 -80.45,186.48 -135.31,127 -376.08,28.58 -383.29,-168.41 -1.55,-42.2 13.72,-79.44 22.89,-110.34l-79.12 0c-35.49,35.95 -16.95,166.86 -4.93,200.21 36.95,102.24 74.26,107.74 101,147.68 -69.29,0 -153.04,40.26 -196.8,68.83 -36.03,23.55 -119.1,99.01 -131.34,140.28 15.41,10.08 66.24,6.02 85.12,5.93 21.64,-15.17 75.48,-96.8 186.33,-124.78 82.11,-20.74 205.37,-11.14 305.38,-11.14 -5.89,25.34 -47.38,92.91 -50.85,135.99 28.11,0 59.84,-3.43 79.12,5.68 15.55,-68.86 60.15,-143.63 99.41,-200.5 39.53,-57.22 94.92,-114.3 149.2,-156 273.79,-210.37 636.71,-208.4 909.28,-4.86 101.58,75.87 180.66,183.55 232.41,298.87 8.05,17.98 14.43,39.13 22.66,56.69l79.12 0.21c-3.36,-41.81 -45.09,-111.34 -50.85,-136.09 203.15,0 379.61,-28.83 503.1,158.16 13.48,20.41 21.34,40.66 33.82,60.91 23.91,0.13 61.88,4.48 78.26,-4.29 -21.76,-135.66 -215.8,-290.54 -366.51,-293.9 22.5,-33.61 69.98,-54.8 99.18,-143.84 7.02,-21.41 20.06,-80.62 18.73,-104 -0.45,-7.83 -4.84,-41.74 -7.16,-55.11l-14.67 -44.94 -84.79 -0.22c35.67,51.12 32.9,146.97 3.91,205.05 -67.06,134.29 -239.8,165.6 -344.02,87.55 -42.19,-31.6 -93.75,-96.8 -95.08,-167.65l-79.12 0c-20.97,-0.6 -77.08,-44.43 -99.82,-55.7 -119.14,-58.98 -231.99,-94.2 -380.58,-94.2 -103.83,0 -192.19,19.43 -270.65,45.88 -100.59,33.89 -135.45,67.42 -209.77,106.75l0 -29.79z"/>
   <path class="fil0" d="M1927.54 2034.67c18.68,-35.28 199.38,-180.86 209.11,-180.86 25.39,0 70.38,60.77 87.18,82.39 39.27,50.53 215.07,231.1 223.67,268.02 -19.82,29.61 -196.94,180.87 -209.11,180.87 -26.23,0 -60.24,-55.74 -86.14,-83.42l-209.35 -237.14c-15.54,-17.28 -7.51,-12.3 -15.36,-29.86zm180.87 -485.32l-84.78 0.13 -95.04 141.65c-4.51,35.3 76.51,94.41 100.68,140.07 -16.95,25.31 -31.38,28.99 -52.33,49.39 -16.14,15.72 -37.54,34.98 -55.04,46.71l-79.11 -90.47c-49.04,-65.37 -53.33,-22.15 -180.71,34.12 -266.04,117.54 -608.7,49.57 -815.37,-157.09l-76.74 -92.83c-16.68,-24.62 -31.3,-46.47 -46.28,-71.22l-84.78 -0.25c14.06,55.53 127.87,200.81 184.11,244.47 91.31,70.93 132.45,113.64 267.31,162.25 205.53,74.06 503.42,66 695.89,-62.9 8.78,5.89 70.51,71.96 73.89,79.18 11.5,24.6 -31.3,53.33 3.1,115.14l288.95 332.75c25.59,25.46 48.37,54.44 106.69,41.78 33.52,-7.29 68.62,-45.14 93.4,-64.98 17.64,-14.14 148.43,-127.45 158.59,-146.62 20.26,-38.14 17.48,-80.49 -8.4,-112.65l-200.21 -229.31c-8.84,-10.5 -7.83,-11.66 -17.28,-22.29l-71 -81.59c-43.74,-44.67 -94.41,-26.77 -122.54,-24.43 -7.4,-11.08 -64.8,-78.44 -73.47,-84.78 16.19,-24.15 31.26,-44.13 48.65,-70.05 11,-16.36 37.52,-58.99 41.79,-76.16z"/>
   <path class="fil0" d="M718.06 1227.39l73.47 0c0,-184.24 44.7,-301.18 128.2,-404 194.46,-239.53 525.35,-285.93 772.77,-124.9 85.52,55.64 146.34,125.41 195.34,211.61 8.1,14.28 13.39,30.24 20.86,46.96 7.71,17.2 11.43,33.98 18.85,48.15l79.14 0.14c-7.15,-81.45 -107.67,-228.1 -170.92,-291.85 -147.09,-148.28 -371.43,-212.3 -580.9,-176.7 -87.53,14.87 -159.79,46.61 -224.93,85.92 -16.89,10.2 -28.88,16.97 -44.71,28.77 -143.18,106.85 -235.19,255.42 -264.13,436.72 -5.6,35.12 -14.07,110.75 -3.03,139.18z"/>
   <path class="fil0" d="M638.93 1549.55l84.78 0.25c-81.83,-174.05 -100.51,-242.71 -90.28,-441.89 1.93,-37.34 21.05,-126.89 33.77,-152.37 -19.28,-9.12 -51.01,-5.68 -79.12,-5.68 -15.9,31.93 -28.44,115.15 -33.13,158.72l-0.82 146.17c1.33,25.21 5.14,20.62 5.68,45.19l-480.42 0c0,-57.22 -4.77,-161.12 3.95,-205.19 14.14,-71.47 34.8,-91.64 63.88,-144.96 -18.89,0.08 -69.71,4.15 -85.12,-5.93 -32.13,38.93 -62.29,130.55 -61.95,203.35 0.2,45.24 0.18,90.5 0.13,135.77 -0.18,126.29 -19.14,96.08 305.2,96.08 90.44,0 180.87,0 271.29,0 3.25,38.99 43.51,146.45 62.18,170.49z"/>
   <path class="fil0" d="M2023.64 1549.48l84.78 -0.13c17.25,-21.75 59.17,-134.29 62.16,-170.29 158.26,0 316.52,-0.11 474.76,0 121.21,0.07 101.72,5.49 101.72,-135.66 0,-41.96 6.3,-174.03 -23.47,-214.75 -16.37,8.77 -54.34,4.41 -78.26,4.29 31.28,74.21 22.6,163.74 22.6,267l-480.4 0c0.59,-26.5 5.79,-28.78 5.65,-90.44 -0.18,-76.37 -0.92,-193.86 -33.92,-259.53l-79.12 -0.21c30.61,128.65 47.41,179.1 33.15,321.15 -9.95,99.07 -48.45,193.56 -89.66,278.58z"/>
   <path class="fil0" d="M1854.07 511.59l79.12 0c0,-308.83 353.96,-315.53 435.19,-124.95l84.79 0.22c-22.88,-119.34 -187.36,-236.56 -356.83,-201.1 -71.18,14.88 -130.6,54.85 -173.74,108.84 -48.84,61.14 -68.53,108.62 -68.53,216.99z"/>
   <path class="fil0" d="M294.17 386.86l79.12 0c27.82,-42.46 51.72,-75.62 95.92,-98.78 40.26,-21.11 98.78,-39.31 166.62,-25 90.75,19.12 178.3,108.95 178.3,216.04 20.19,8.64 50.66,5.42 79.12,5.42 0,-240.2 -274.07,-389.54 -478,-256.06 -40.19,26.31 -117.18,102.35 -121.08,158.38z"/>
   <path class="fil0" d="M231.99 1226.45l203.46 0c65.57,0 55.98,-79.12 16.96,-79.12l-237.37 0c-37.66,0 -52.39,79.12 16.95,79.12z"/>
   <path class="fil0" d="M2311.87 1226.45l203.46 0c66.45,0 56.7,-79.12 16.96,-79.12l-237.37 0c-39.03,0 -48.62,79.12 16.95,79.12z"/>
   <path class="fil0" d="M1334.11 2113.8l0 214.75c0,54.3 79.12,54.3 79.12,0l0 -214.75c0,-57.37 -79.12,-57.37 -79.12,0z"/>
   <path class="fil0" d="M1334.11 143.75l79.12 0c0,-102 10.8,-93.84 -22.61,-143.75l-33.91 0c-14.02,20.94 -22.32,19.32 -22.96,56.16 -0.5,28.71 0.36,58.7 0.36,87.6z"/>
   <polygon class="fil0" points="1413.23,143.75 1334.11,143.75 "/>
  </g>
 </g>
</svg>
