<?xml version="1.0" standalone="no"?>
<!DOCTYPE svg PUBLIC "-//W3C//DTD SVG 20010904//EN"
 "http://www.w3.org/TR/2001/REC-SVG-20010904/DTD/svg10.dtd">
<svg version="1.0" xmlns="http://www.w3.org/2000/svg"
 width="261.000000pt" height="261.000000pt" viewBox="0 0 261.000000 261.000000"
 preserveAspectRatio="xMidYMid meet">
<metadata>
Created by potrace 1.14, written by Peter Selinger 2001-2017
</metadata>
<g transform="translate(0.000000,261.000000) scale(0.100000,-0.100000)"
fill="#000000" stroke="none">
<path d="M9 1988 c-1 -5 -2 -16 -3 -25 -1 -17 67 -18 1297 -18 l1298 0 -3 25
-3 25 -1292 0 c-711 0 -1294 -3 -1294 -7z"/>
<path d="M8 1824 c-4 -3 34 -45 82 -92 l89 -87 -1 -300 c0 -431 -1 -402 20
-379 9 10 57 55 107 99 49 44 103 92 120 107 l30 28 2 202 c1 112 2 213 2 226
1 31 75 109 118 123 82 27 155 14 218 -38 67 -56 65 -35 65 -586 0 -307 4
-497 9 -495 6 2 54 44 107 93 53 50 111 102 128 117 l31 27 1 368 c1 356 1
369 22 408 12 22 30 50 40 61 42 49 137 74 191 51 30 -12 97 -73 114 -102 8
-14 12 -134 12 -399 l1 -379 70 -65 c69 -65 138 -127 186 -170 l26 -24 0 489
c0 268 1 501 1 517 1 44 83 121 138 131 65 10 102 -3 160 -58 l53 -50 0 -220
0 -221 39 -35 c22 -20 78 -72 126 -116 48 -44 93 -83 99 -87 8 -4 11 84 10
335 l0 342 77 78 c42 42 85 77 94 77 9 0 15 6 13 13 -4 9 -274 13 -1300 15
-712 1 -1297 -1 -1300 -4z"/>
</g>
</svg>
